<svg xmlns="http://www.w3.org/2000/svg" xmlns:xlink="http://www.w3.org/1999/xlink" width="500" zoomAndPan="magnify" viewBox="0 0 375 374.999991" height="500" preserveAspectRatio="xMidYMid meet" version="1.0"><defs><g/><clipPath id="a90aa567a4"><path d="M 169 0.121094 L 201 0.121094 L 201 43 L 169 43 Z M 169 0.121094 " clip-rule="nonzero"/></clipPath><clipPath id="fcbc8e696c"><rect x="0" width="344" y="0" height="53"/></clipPath><clipPath id="856279b34c"><rect x="0" width="201" y="0" height="43"/></clipPath><clipPath id="f8d521198b"><path d="M 156 43 L 321 43 L 321 192.558594 L 156 192.558594 Z M 156 43 " clip-rule="nonzero"/></clipPath><clipPath id="eade2eb33f"><path d="M 48.03125 59 L 166 59 L 166 156 L 48.03125 156 Z M 48.03125 59 " clip-rule="nonzero"/></clipPath></defs><g transform="matrix(1, 0, 0, 1, 16, 207)"><g clip-path="url(#fcbc8e696c)"><g fill="#220204" fill-opacity="1"><g transform="translate(0.710897, 41.426198)"><g><path d="M 28.546875 -40.359375 L 37.25 -40.359375 L 37.25 0 L 28.546875 0 L 28.546875 -16.65625 L 13.375 -16.65625 L 13.375 0 L 4.609375 0 L 4.609375 -40.359375 L 13.375 -40.359375 L 13.375 -24.796875 L 28.546875 -24.796875 Z M 28.546875 -40.359375 "/></g></g></g><g fill="#220204" fill-opacity="1"><g transform="translate(42.631397, 41.426198)"><g><path d="M 34.25 -15.6875 C 34.25 -14.875 34.191406 -14.046875 34.078125 -13.203125 L 10.546875 -13.203125 C 10.890625 -11.085938 11.734375 -9.460938 13.078125 -8.328125 C 14.429688 -7.191406 16.125 -6.625 18.15625 -6.625 C 19.625 -6.625 20.929688 -6.941406 22.078125 -7.578125 C 23.234375 -8.210938 24.117188 -9.085938 24.734375 -10.203125 L 33.609375 -10.203125 C 32.460938 -6.816406 30.503906 -4.125 27.734375 -2.125 C 24.960938 -0.132812 21.769531 0.859375 18.15625 0.859375 C 15.082031 0.859375 12.328125 0.140625 9.890625 -1.296875 C 7.453125 -2.734375 5.53125 -4.691406 4.125 -7.171875 C 2.71875 -9.648438 2.015625 -12.445312 2.015625 -15.5625 C 2.015625 -18.675781 2.71875 -21.472656 4.125 -23.953125 C 5.53125 -26.429688 7.453125 -28.390625 9.890625 -29.828125 C 12.328125 -31.273438 15.082031 -32 18.15625 -32 C 21.351562 -32 24.160156 -31.257812 26.578125 -29.78125 C 29.003906 -28.300781 30.890625 -26.332031 32.234375 -23.875 C 33.578125 -21.414062 34.25 -18.6875 34.25 -15.6875 Z M 18.15625 -24.84375 C 16.28125 -24.84375 14.695312 -24.320312 13.40625 -23.28125 C 12.113281 -22.25 11.238281 -20.8125 10.78125 -18.96875 L 25.828125 -18.96875 C 24.597656 -22.882812 22.039062 -24.84375 18.15625 -24.84375 Z M 18.15625 -24.84375 "/></g></g></g><g fill="#220204" fill-opacity="1"><g transform="translate(78.843331, 41.426198)"><g><path d="M 29.46875 -31.1875 L 35.75 -31.1875 L 35.75 -0.0625 L 29.109375 -0.0625 L 28.421875 -2.828125 C 27.078125 -1.671875 25.550781 -0.765625 23.84375 -0.109375 C 22.132812 0.535156 20.296875 0.859375 18.328125 0.859375 C 15.222656 0.859375 12.4375 0.140625 9.96875 -1.296875 C 7.507812 -2.734375 5.566406 -4.691406 4.140625 -7.171875 C 2.722656 -9.648438 2.015625 -12.46875 2.015625 -15.625 C 2.015625 -18.738281 2.722656 -21.535156 4.140625 -24.015625 C 5.566406 -26.492188 7.507812 -28.441406 9.96875 -29.859375 C 12.4375 -31.285156 15.222656 -32 18.328125 -32 C 20.328125 -32 22.191406 -31.660156 23.921875 -30.984375 C 25.648438 -30.316406 27.191406 -29.382812 28.546875 -28.1875 Z M 19.03125 -7.09375 C 20.644531 -7.09375 22.09375 -7.457031 23.375 -8.1875 C 24.664062 -8.914062 25.675781 -9.921875 26.40625 -11.203125 C 27.132812 -12.492188 27.5 -13.96875 27.5 -15.625 C 27.5 -17.238281 27.132812 -18.6875 26.40625 -19.96875 C 25.675781 -21.257812 24.664062 -22.28125 23.375 -23.03125 C 22.09375 -23.78125 20.644531 -24.15625 19.03125 -24.15625 C 17.375 -24.15625 15.910156 -23.78125 14.640625 -23.03125 C 13.367188 -22.28125 12.367188 -21.257812 11.640625 -19.96875 C 10.910156 -18.6875 10.546875 -17.238281 10.546875 -15.625 C 10.546875 -13.96875 10.910156 -12.503906 11.640625 -11.234375 C 12.367188 -9.972656 13.367188 -8.96875 14.640625 -8.21875 C 15.910156 -7.46875 17.375 -7.09375 19.03125 -7.09375 Z M 19.03125 -7.09375 "/></g></g></g><g fill="#220204" fill-opacity="1"><g transform="translate(118.630329, 41.426198)"><g><path d="M 19.953125 -31.3125 L 22.71875 -31.3125 L 22.71875 -23.34375 L 19.078125 -23.34375 C 16.703125 -23.34375 15.003906 -22.785156 13.984375 -21.671875 C 12.960938 -20.554688 12.453125 -18.734375 12.453125 -16.203125 L 12.453125 0 L 4.03125 0 L 4.03125 -31.140625 L 9.453125 -31.140625 L 10.953125 -27.328125 C 13.066406 -29.984375 16.066406 -31.3125 19.953125 -31.3125 Z M 19.953125 -31.3125 "/></g></g></g><g fill="#220204" fill-opacity="1"><g transform="translate(142.098892, 41.426198)"><g><path d="M 19.25 -7.5 L 23.0625 -7.5 L 23.0625 0 L 17.125 0 C 13.707031 0 11.003906 -0.988281 9.015625 -2.96875 C 7.035156 -4.945312 6.046875 -7.664062 6.046875 -11.125 L 6.046875 -24.390625 L 0.40625 -24.390625 L 0.40625 -26.171875 L 12.734375 -39.265625 L 14.296875 -39.265625 L 14.296875 -31.140625 L 22.890625 -31.140625 L 22.890625 -24.390625 L 14.46875 -24.390625 L 14.46875 -12.21875 C 14.46875 -10.71875 14.878906 -9.554688 15.703125 -8.734375 C 16.535156 -7.910156 17.71875 -7.5 19.25 -7.5 Z M 19.25 -7.5 "/></g></g></g><g clip-path="url(#a90aa567a4)"><g fill="#220204" fill-opacity="1"><g transform="translate(166.89369, 41.426198)"><g><path d="M 17.984375 0.8125 C 14.910156 0.8125 12.203125 0.253906 9.859375 -0.859375 C 7.515625 -1.972656 5.675781 -3.566406 4.34375 -5.640625 C 3.019531 -7.722656 2.359375 -10.207031 2.359375 -13.09375 L 11.1875 -13.09375 C 11.1875 -11.125 11.867188 -9.671875 13.234375 -8.734375 C 14.597656 -7.796875 16.164062 -7.328125 17.9375 -7.328125 C 19.050781 -7.328125 20.097656 -7.507812 21.078125 -7.875 C 22.054688 -8.238281 22.863281 -8.773438 23.5 -9.484375 C 24.132812 -10.191406 24.453125 -11.046875 24.453125 -12.046875 C 24.453125 -13.085938 24.082031 -13.90625 23.34375 -14.5 C 22.613281 -15.09375 21.632812 -15.582031 20.40625 -15.96875 C 19.175781 -16.351562 17.832031 -16.71875 16.375 -17.0625 C 14.875 -17.40625 13.332031 -17.828125 11.75 -18.328125 C 10.175781 -18.828125 8.71875 -19.488281 7.375 -20.3125 C 6.03125 -21.144531 4.953125 -22.257812 4.140625 -23.65625 C 3.335938 -25.0625 2.9375 -26.84375 2.9375 -29 C 2.9375 -32.882812 4.253906 -35.875 6.890625 -37.96875 C 9.523438 -40.0625 13.085938 -41.109375 17.578125 -41.109375 C 22.191406 -41.109375 25.765625 -39.941406 28.296875 -37.609375 C 30.835938 -35.285156 32.109375 -32.128906 32.109375 -28.140625 L 23.46875 -28.140625 C 23.46875 -29.867188 22.851562 -31.144531 21.625 -31.96875 C 20.394531 -32.789062 18.972656 -33.203125 17.359375 -33.203125 C 15.929688 -33.203125 14.617188 -32.894531 13.421875 -32.28125 C 12.234375 -31.664062 11.640625 -30.707031 11.640625 -29.40625 C 11.640625 -28.445312 11.992188 -27.6875 12.703125 -27.125 C 13.421875 -26.570312 14.363281 -26.113281 15.53125 -25.75 C 16.707031 -25.382812 18.007812 -25.023438 19.4375 -24.671875 C 20.96875 -24.285156 22.539062 -23.832031 24.15625 -23.3125 C 25.769531 -22.800781 27.269531 -22.101562 28.65625 -21.21875 C 30.039062 -20.332031 31.164062 -19.160156 32.03125 -17.703125 C 32.894531 -16.242188 33.328125 -14.398438 33.328125 -12.171875 C 33.328125 -9.242188 32.625 -6.816406 31.21875 -4.890625 C 29.8125 -2.972656 27.957031 -1.539062 25.65625 -0.59375 C 23.351562 0.34375 20.796875 0.8125 17.984375 0.8125 Z M 17.984375 0.8125 "/></g></g></g></g><g fill="#220204" fill-opacity="1"><g transform="translate(202.586655, 41.426198)"><g><path d="M 34.25 -15.6875 C 34.25 -14.875 34.191406 -14.046875 34.078125 -13.203125 L 10.546875 -13.203125 C 10.890625 -11.085938 11.734375 -9.460938 13.078125 -8.328125 C 14.429688 -7.191406 16.125 -6.625 18.15625 -6.625 C 19.625 -6.625 20.929688 -6.941406 22.078125 -7.578125 C 23.234375 -8.210938 24.117188 -9.085938 24.734375 -10.203125 L 33.609375 -10.203125 C 32.460938 -6.816406 30.503906 -4.125 27.734375 -2.125 C 24.960938 -0.132812 21.769531 0.859375 18.15625 0.859375 C 15.082031 0.859375 12.328125 0.140625 9.890625 -1.296875 C 7.453125 -2.734375 5.53125 -4.691406 4.125 -7.171875 C 2.71875 -9.648438 2.015625 -12.445312 2.015625 -15.5625 C 2.015625 -18.675781 2.71875 -21.472656 4.125 -23.953125 C 5.53125 -26.429688 7.453125 -28.390625 9.890625 -29.828125 C 12.328125 -31.273438 15.082031 -32 18.15625 -32 C 21.351562 -32 24.160156 -31.257812 26.578125 -29.78125 C 29.003906 -28.300781 30.890625 -26.332031 32.234375 -23.875 C 33.578125 -21.414062 34.25 -18.6875 34.25 -15.6875 Z M 18.15625 -24.84375 C 16.28125 -24.84375 14.695312 -24.320312 13.40625 -23.28125 C 12.113281 -22.25 11.238281 -20.8125 10.78125 -18.96875 L 25.828125 -18.96875 C 24.597656 -22.882812 22.039062 -24.84375 18.15625 -24.84375 Z M 18.15625 -24.84375 "/></g></g></g><g fill="#220204" fill-opacity="1"><g transform="translate(238.798589, 41.426198)"><g><path d="M 21.796875 -31.890625 C 25.328125 -31.890625 28.117188 -30.707031 30.171875 -28.34375 C 32.234375 -25.976562 33.265625 -22.816406 33.265625 -18.859375 L 33.265625 0 L 24.84375 0 L 24.84375 -17.53125 C 24.84375 -22.175781 23.039062 -24.5 19.4375 -24.5 C 17.28125 -24.5 15.578125 -23.769531 14.328125 -22.3125 C 13.078125 -20.851562 12.453125 -18.875 12.453125 -16.375 L 12.453125 0 L 4.03125 0 L 4.03125 -31.140625 L 9.796875 -31.140625 L 11.46875 -27.265625 C 12.625 -28.691406 14.101562 -29.816406 15.90625 -30.640625 C 17.71875 -31.472656 19.679688 -31.890625 21.796875 -31.890625 Z M 21.796875 -31.890625 "/></g></g></g><g fill="#220204" fill-opacity="1"><g transform="translate(275.760139, 41.426198)"><g><path d="M 15.109375 0.859375 C 12.492188 0.859375 10.203125 0.398438 8.234375 -0.515625 C 6.273438 -1.441406 4.75 -2.738281 3.65625 -4.40625 C 2.5625 -6.082031 2.015625 -8.035156 2.015625 -10.265625 L 10.203125 -10.265625 C 10.242188 -8.878906 10.742188 -7.835938 11.703125 -7.140625 C 12.660156 -6.453125 13.890625 -6.109375 15.390625 -6.109375 C 16.585938 -6.109375 17.625 -6.367188 18.5 -6.890625 C 19.382812 -7.410156 19.828125 -8.1875 19.828125 -9.21875 C 19.828125 -10.300781 19.238281 -11.0625 18.0625 -11.5 C 16.894531 -11.945312 15.488281 -12.300781 13.84375 -12.5625 C 12.613281 -12.757812 11.332031 -13.03125 10 -13.375 C 8.675781 -13.71875 7.457031 -14.21875 6.34375 -14.875 C 5.226562 -15.53125 4.3125 -16.429688 3.59375 -17.578125 C 2.882812 -18.734375 2.53125 -20.234375 2.53125 -22.078125 C 2.53125 -24.035156 3.054688 -25.765625 4.109375 -27.265625 C 5.171875 -28.765625 6.632812 -29.925781 8.5 -30.75 C 10.363281 -31.582031 12.566406 -32 15.109375 -32 C 17.609375 -32 19.789062 -31.566406 21.65625 -30.703125 C 23.519531 -29.835938 24.96875 -28.625 26 -27.0625 C 27.039062 -25.507812 27.5625 -23.695312 27.5625 -21.625 L 19.546875 -21.625 C 19.546875 -22.851562 19.128906 -23.773438 18.296875 -24.390625 C 17.472656 -25.003906 16.332031 -25.3125 14.875 -25.3125 C 13.570312 -25.3125 12.550781 -25.03125 11.8125 -24.46875 C 11.082031 -23.914062 10.71875 -23.195312 10.71875 -22.3125 C 10.71875 -21.269531 11.296875 -20.554688 12.453125 -20.171875 C 13.609375 -19.796875 14.992188 -19.472656 16.609375 -19.203125 C 17.867188 -18.972656 19.171875 -18.691406 20.515625 -18.359375 C 21.867188 -18.035156 23.117188 -17.546875 24.265625 -16.890625 C 25.421875 -16.234375 26.351562 -15.328125 27.0625 -14.171875 C 27.78125 -13.023438 28.140625 -11.507812 28.140625 -9.625 C 28.140625 -7.507812 27.597656 -5.664062 26.515625 -4.09375 C 25.441406 -2.519531 23.925781 -1.300781 21.96875 -0.4375 C 20.007812 0.425781 17.722656 0.859375 15.109375 0.859375 Z M 15.109375 0.859375 "/></g></g></g><g fill="#220204" fill-opacity="1"><g transform="translate(306.032857, 41.426198)"><g><path d="M 34.25 -15.6875 C 34.25 -14.875 34.191406 -14.046875 34.078125 -13.203125 L 10.546875 -13.203125 C 10.890625 -11.085938 11.734375 -9.460938 13.078125 -8.328125 C 14.429688 -7.191406 16.125 -6.625 18.15625 -6.625 C 19.625 -6.625 20.929688 -6.941406 22.078125 -7.578125 C 23.234375 -8.210938 24.117188 -9.085938 24.734375 -10.203125 L 33.609375 -10.203125 C 32.460938 -6.816406 30.503906 -4.125 27.734375 -2.125 C 24.960938 -0.132812 21.769531 0.859375 18.15625 0.859375 C 15.082031 0.859375 12.328125 0.140625 9.890625 -1.296875 C 7.453125 -2.734375 5.53125 -4.691406 4.125 -7.171875 C 2.71875 -9.648438 2.015625 -12.445312 2.015625 -15.5625 C 2.015625 -18.675781 2.71875 -21.472656 4.125 -23.953125 C 5.53125 -26.429688 7.453125 -28.390625 9.890625 -29.828125 C 12.328125 -31.273438 15.082031 -32 18.15625 -32 C 21.351562 -32 24.160156 -31.257812 26.578125 -29.78125 C 29.003906 -28.300781 30.890625 -26.332031 32.234375 -23.875 C 33.578125 -21.414062 34.25 -18.6875 34.25 -15.6875 Z M 18.15625 -24.84375 C 16.28125 -24.84375 14.695312 -24.320312 13.40625 -23.28125 C 12.113281 -22.25 11.238281 -20.8125 10.78125 -18.96875 L 25.828125 -18.96875 C 24.597656 -22.882812 22.039062 -24.84375 18.15625 -24.84375 Z M 18.15625 -24.84375 "/></g></g></g></g></g><g transform="matrix(1, 0, 0, 1, 88, 269)"><g clip-path="url(#856279b34c)"><g fill="#ed1f2f" fill-opacity="1"><g transform="translate(24.966264, 13.940704)"><g><path d="M 8.421875 -6.328125 C 8.984375 -6.078125 9.425781 -5.6875 9.75 -5.15625 C 10.082031 -4.625 10.25 -4.023438 10.25 -3.359375 C 10.25 -2.722656 10.082031 -2.148438 9.75 -1.640625 C 9.425781 -1.140625 8.984375 -0.738281 8.421875 -0.4375 C 7.867188 -0.144531 7.242188 0 6.546875 0 L 1.671875 0 L 1.671875 -12.203125 L 6.484375 -12.203125 C 7.140625 -12.203125 7.726562 -12.0625 8.25 -11.78125 C 8.769531 -11.507812 9.175781 -11.140625 9.46875 -10.671875 C 9.757812 -10.203125 9.90625 -9.671875 9.90625 -9.078125 C 9.90625 -8.535156 9.769531 -8.003906 9.5 -7.484375 C 9.238281 -6.972656 8.878906 -6.585938 8.421875 -6.328125 Z M 8.359375 -8.875 C 8.359375 -9.394531 8.171875 -9.828125 7.796875 -10.171875 C 7.429688 -10.523438 6.984375 -10.703125 6.453125 -10.703125 L 3.171875 -10.703125 L 3.171875 -7.03125 L 6.46875 -7.03125 C 7 -7.03125 7.445312 -7.210938 7.8125 -7.578125 C 8.175781 -7.941406 8.359375 -8.375 8.359375 -8.875 Z M 6.53125 -1.515625 C 7.132812 -1.515625 7.640625 -1.703125 8.046875 -2.078125 C 8.453125 -2.453125 8.65625 -2.9375 8.65625 -3.53125 C 8.65625 -4.101562 8.453125 -4.582031 8.046875 -4.96875 C 7.640625 -5.351562 7.132812 -5.546875 6.53125 -5.546875 L 3.171875 -5.546875 L 3.171875 -1.515625 Z M 6.53125 -1.515625 "/></g></g></g><g fill="#ed1f2f" fill-opacity="1"><g transform="translate(37.158312, 13.940704)"><g><path d="M 3.1875 -1.46875 L 8.765625 -1.46875 L 8.765625 0 L 1.671875 0 L 1.671875 -12.203125 L 8.578125 -12.203125 L 8.578125 -10.75 L 3.1875 -10.75 L 3.1875 -6.96875 L 8.125 -6.96875 L 8.125 -5.5625 L 3.1875 -5.5625 Z M 3.1875 -1.46875 "/></g></g></g><g fill="#ed1f2f" fill-opacity="1"><g transform="translate(47.748002, 13.940704)"><g><path d="M 7.09375 0.1875 C 6.1875 0.1875 5.351562 0.0351562 4.59375 -0.265625 C 3.832031 -0.578125 3.171875 -1.015625 2.609375 -1.578125 C 2.046875 -2.140625 1.609375 -2.800781 1.296875 -3.5625 C 0.992188 -4.332031 0.84375 -5.175781 0.84375 -6.09375 C 0.84375 -7.007812 0.992188 -7.851562 1.296875 -8.625 C 1.609375 -9.394531 2.046875 -10.0625 2.609375 -10.625 C 3.171875 -11.1875 3.832031 -11.617188 4.59375 -11.921875 C 5.351562 -12.234375 6.1875 -12.390625 7.09375 -12.390625 C 8.03125 -12.390625 8.890625 -12.210938 9.671875 -11.859375 C 10.460938 -11.503906 11.132812 -11.003906 11.6875 -10.359375 C 12.238281 -9.710938 12.628906 -8.945312 12.859375 -8.0625 L 11.3125 -8.0625 C 10.976562 -8.945312 10.441406 -9.640625 9.703125 -10.140625 C 8.960938 -10.640625 8.09375 -10.890625 7.09375 -10.890625 C 6.1875 -10.890625 5.378906 -10.6875 4.671875 -10.28125 C 3.960938 -9.875 3.40625 -9.304688 3 -8.578125 C 2.601562 -7.847656 2.40625 -7.019531 2.40625 -6.09375 C 2.40625 -5.15625 2.601562 -4.328125 3 -3.609375 C 3.40625 -2.890625 3.960938 -2.328125 4.671875 -1.921875 C 5.378906 -1.515625 6.1875 -1.3125 7.09375 -1.3125 C 8.113281 -1.3125 9 -1.570312 9.75 -2.09375 C 10.507812 -2.625 11.046875 -3.359375 11.359375 -4.296875 L 12.921875 -4.296875 C 12.691406 -3.378906 12.296875 -2.582031 11.734375 -1.90625 C 11.179688 -1.238281 10.503906 -0.722656 9.703125 -0.359375 C 8.910156 0.00390625 8.039062 0.1875 7.09375 0.1875 Z M 7.09375 0.1875 "/></g></g></g><g fill="#ed1f2f" fill-opacity="1"><g transform="translate(62.221659, 13.940704)"><g><path d="M 10.1875 0 L 8.96875 -2.921875 L 3.125 -2.921875 L 1.921875 0 L 0.296875 0 L 5.28125 -12.203125 L 6.703125 -12.203125 L 11.84375 0 Z M 6.03125 -10.09375 L 3.6875 -4.328125 L 8.390625 -4.328125 Z M 6.03125 -10.09375 "/></g></g></g><g fill="#ed1f2f" fill-opacity="1"><g transform="translate(75.319378, 13.940704)"><g><path d="M 6.328125 0.203125 C 5.410156 0.203125 4.585938 0 3.859375 -0.40625 C 3.128906 -0.8125 2.554688 -1.367188 2.140625 -2.078125 C 1.722656 -2.796875 1.515625 -3.617188 1.515625 -4.546875 L 1.515625 -12.203125 L 3.0625 -12.203125 L 3.0625 -4.65625 C 3.0625 -3.988281 3.203125 -3.398438 3.484375 -2.890625 C 3.765625 -2.390625 4.144531 -2 4.625 -1.71875 C 5.113281 -1.4375 5.679688 -1.296875 6.328125 -1.296875 C 6.953125 -1.296875 7.507812 -1.4375 8 -1.71875 C 8.488281 -2 8.867188 -2.390625 9.140625 -2.890625 C 9.410156 -3.398438 9.546875 -3.988281 9.546875 -4.65625 L 9.546875 -12.203125 L 11.09375 -12.203125 L 11.09375 -4.546875 C 11.09375 -3.617188 10.882812 -2.796875 10.46875 -2.078125 C 10.050781 -1.367188 9.484375 -0.8125 8.765625 -0.40625 C 8.046875 0 7.234375 0.203125 6.328125 0.203125 Z M 6.328125 0.203125 "/></g></g></g><g fill="#ed1f2f" fill-opacity="1"><g transform="translate(88.887363, 13.940704)"><g><path d="M 5.296875 0.15625 C 4.398438 0.15625 3.613281 0 2.9375 -0.3125 C 2.269531 -0.632812 1.742188 -1.085938 1.359375 -1.671875 C 0.984375 -2.265625 0.796875 -2.960938 0.796875 -3.765625 L 2.359375 -3.765625 C 2.359375 -2.992188 2.632812 -2.394531 3.1875 -1.96875 C 3.75 -1.550781 4.445312 -1.34375 5.28125 -1.34375 C 5.789062 -1.34375 6.253906 -1.425781 6.671875 -1.59375 C 7.085938 -1.757812 7.414062 -2.003906 7.65625 -2.328125 C 7.90625 -2.648438 8.03125 -3.023438 8.03125 -3.453125 C 8.03125 -3.921875 7.882812 -4.285156 7.59375 -4.546875 C 7.3125 -4.816406 6.9375 -5.023438 6.46875 -5.171875 C 6.007812 -5.328125 5.519531 -5.460938 5 -5.578125 C 4.519531 -5.691406 4.046875 -5.816406 3.578125 -5.953125 C 3.117188 -6.097656 2.691406 -6.285156 2.296875 -6.515625 C 1.910156 -6.753906 1.601562 -7.066406 1.375 -7.453125 C 1.144531 -7.847656 1.03125 -8.347656 1.03125 -8.953125 C 1.03125 -10.015625 1.40625 -10.847656 2.15625 -11.453125 C 2.914062 -12.054688 3.921875 -12.359375 5.171875 -12.359375 C 6.441406 -12.359375 7.4375 -12.03125 8.15625 -11.375 C 8.882812 -10.726562 9.25 -9.851562 9.25 -8.75 L 7.734375 -8.75 C 7.734375 -9.414062 7.488281 -9.9375 7 -10.3125 C 6.507812 -10.695312 5.894531 -10.890625 5.15625 -10.890625 C 4.414062 -10.890625 3.796875 -10.722656 3.296875 -10.390625 C 2.804688 -10.054688 2.5625 -9.601562 2.5625 -9.03125 C 2.5625 -8.570312 2.695312 -8.21875 2.96875 -7.96875 C 3.25 -7.71875 3.613281 -7.519531 4.0625 -7.375 C 4.507812 -7.226562 4.992188 -7.097656 5.515625 -6.984375 C 5.992188 -6.867188 6.472656 -6.734375 6.953125 -6.578125 C 7.441406 -6.429688 7.882812 -6.234375 8.28125 -5.984375 C 8.6875 -5.742188 9.003906 -5.421875 9.234375 -5.015625 C 9.472656 -4.609375 9.59375 -4.09375 9.59375 -3.46875 C 9.59375 -2.695312 9.40625 -2.039062 9.03125 -1.5 C 8.65625 -0.96875 8.140625 -0.554688 7.484375 -0.265625 C 6.835938 0.015625 6.109375 0.15625 5.296875 0.15625 Z M 5.296875 0.15625 "/></g></g></g><g fill="#ed1f2f" fill-opacity="1"><g transform="translate(100.243392, 13.940704)"><g><path d="M 3.1875 -1.46875 L 8.765625 -1.46875 L 8.765625 0 L 1.671875 0 L 1.671875 -12.203125 L 8.578125 -12.203125 L 8.578125 -10.75 L 3.1875 -10.75 L 3.1875 -6.96875 L 8.125 -6.96875 L 8.125 -5.5625 L 3.1875 -5.5625 Z M 3.1875 -1.46875 "/></g></g></g><g fill="#ed1f2f" fill-opacity="1"><g transform="translate(110.833082, 13.940704)"><g/></g></g><g fill="#ed1f2f" fill-opacity="1"><g transform="translate(116.354441, 13.940704)"><g><path d="M 3.1875 -1.46875 L 8.765625 -1.46875 L 8.765625 0 L 1.671875 0 L 1.671875 -12.203125 L 8.578125 -12.203125 L 8.578125 -10.75 L 3.1875 -10.75 L 3.1875 -6.96875 L 8.125 -6.96875 L 8.125 -5.5625 L 3.1875 -5.5625 Z M 3.1875 -1.46875 "/></g></g></g><g fill="#ed1f2f" fill-opacity="1"><g transform="translate(126.94413, 13.940704)"><g><path d="M 9.84375 -12.203125 L 11.515625 -12.203125 L 6.65625 0 L 5.25 0 L 0.3125 -12.203125 L 2 -12.203125 L 5.953125 -2.296875 Z M 9.84375 -12.203125 "/></g></g></g><g fill="#ed1f2f" fill-opacity="1"><g transform="translate(139.780595, 13.940704)"><g><path d="M 3.1875 -1.46875 L 8.765625 -1.46875 L 8.765625 0 L 1.671875 0 L 1.671875 -12.203125 L 8.578125 -12.203125 L 8.578125 -10.75 L 3.1875 -10.75 L 3.1875 -6.96875 L 8.125 -6.96875 L 8.125 -5.5625 L 3.1875 -5.5625 Z M 3.1875 -1.46875 "/></g></g></g><g fill="#ed1f2f" fill-opacity="1"><g transform="translate(150.370285, 13.940704)"><g><path d="M 8.765625 0 L 5.96875 -4.78125 L 3.1875 -4.78125 L 3.1875 0 L 1.671875 0 L 1.671875 -12.203125 L 6.296875 -12.203125 C 7.054688 -12.203125 7.734375 -12.039062 8.328125 -11.71875 C 8.929688 -11.394531 9.40625 -10.953125 9.75 -10.390625 C 10.09375 -9.828125 10.265625 -9.1875 10.265625 -8.46875 C 10.265625 -7.601562 10.015625 -6.859375 9.515625 -6.234375 C 9.023438 -5.609375 8.378906 -5.179688 7.578125 -4.953125 L 10.484375 0 Z M 3.1875 -10.75 L 3.1875 -6.21875 L 6.21875 -6.21875 C 6.957031 -6.21875 7.554688 -6.425781 8.015625 -6.84375 C 8.484375 -7.269531 8.71875 -7.816406 8.71875 -8.484375 C 8.71875 -9.128906 8.484375 -9.664062 8.015625 -10.09375 C 7.554688 -10.53125 6.957031 -10.75 6.21875 -10.75 Z M 3.1875 -10.75 "/></g></g></g><g fill="#ed1f2f" fill-opacity="1"><g transform="translate(162.54491, 13.940704)"><g><path d="M 11.03125 -12.203125 L 6.515625 -4.859375 L 6.515625 0 L 4.953125 0 L 4.953125 -4.859375 L 0.46875 -12.203125 L 2.140625 -12.203125 L 5.734375 -6.3125 L 9.34375 -12.203125 Z M 11.03125 -12.203125 "/></g></g></g><g fill="#ed1f2f" fill-opacity="1"><g transform="translate(0.796344, 38.315702)"><g><path d="M 9.515625 -12.203125 L 11.03125 -12.203125 L 11.03125 0 L 9.515625 0 L 9.515625 -5.546875 L 3.1875 -5.546875 L 3.1875 0 L 1.671875 0 L 1.671875 -12.203125 L 3.1875 -12.203125 L 3.1875 -7 L 9.515625 -7 Z M 9.515625 -12.203125 "/></g></g></g><g fill="#ed1f2f" fill-opacity="1"><g transform="translate(14.451405, 38.315702)"><g><path d="M 3.1875 -1.46875 L 8.765625 -1.46875 L 8.765625 0 L 1.671875 0 L 1.671875 -12.203125 L 8.578125 -12.203125 L 8.578125 -10.75 L 3.1875 -10.75 L 3.1875 -6.96875 L 8.125 -6.96875 L 8.125 -5.5625 L 3.1875 -5.5625 Z M 3.1875 -1.46875 "/></g></g></g><g fill="#ed1f2f" fill-opacity="1"><g transform="translate(25.041094, 38.315702)"><g><path d="M 10.1875 0 L 8.96875 -2.921875 L 3.125 -2.921875 L 1.921875 0 L 0.296875 0 L 5.28125 -12.203125 L 6.703125 -12.203125 L 11.84375 0 Z M 6.03125 -10.09375 L 3.6875 -4.328125 L 8.390625 -4.328125 Z M 6.03125 -10.09375 "/></g></g></g><g fill="#ed1f2f" fill-opacity="1"><g transform="translate(38.138814, 38.315702)"><g><path d="M 8.765625 0 L 5.96875 -4.78125 L 3.1875 -4.78125 L 3.1875 0 L 1.671875 0 L 1.671875 -12.203125 L 6.296875 -12.203125 C 7.054688 -12.203125 7.734375 -12.039062 8.328125 -11.71875 C 8.929688 -11.394531 9.40625 -10.953125 9.75 -10.390625 C 10.09375 -9.828125 10.265625 -9.1875 10.265625 -8.46875 C 10.265625 -7.601562 10.015625 -6.859375 9.515625 -6.234375 C 9.023438 -5.609375 8.378906 -5.179688 7.578125 -4.953125 L 10.484375 0 Z M 3.1875 -10.75 L 3.1875 -6.21875 L 6.21875 -6.21875 C 6.957031 -6.21875 7.554688 -6.425781 8.015625 -6.84375 C 8.484375 -7.269531 8.71875 -7.816406 8.71875 -8.484375 C 8.71875 -9.128906 8.484375 -9.664062 8.015625 -10.09375 C 7.554688 -10.53125 6.957031 -10.75 6.21875 -10.75 Z M 3.1875 -10.75 "/></g></g></g><g fill="#ed1f2f" fill-opacity="1"><g transform="translate(50.313438, 38.315702)"><g><path d="M 9.328125 -12.203125 L 9.328125 -10.765625 L 5.609375 -10.765625 L 5.609375 0 L 4.078125 0 L 4.078125 -10.765625 L 0.359375 -10.765625 L 0.359375 -12.203125 Z M 9.328125 -12.203125 "/></g></g></g><g fill="#ed1f2f" fill-opacity="1"><g transform="translate(60.95537, 38.315702)"><g><path d="M 8.421875 -6.328125 C 8.984375 -6.078125 9.425781 -5.6875 9.75 -5.15625 C 10.082031 -4.625 10.25 -4.023438 10.25 -3.359375 C 10.25 -2.722656 10.082031 -2.148438 9.75 -1.640625 C 9.425781 -1.140625 8.984375 -0.738281 8.421875 -0.4375 C 7.867188 -0.144531 7.242188 0 6.546875 0 L 1.671875 0 L 1.671875 -12.203125 L 6.484375 -12.203125 C 7.140625 -12.203125 7.726562 -12.0625 8.25 -11.78125 C 8.769531 -11.507812 9.175781 -11.140625 9.46875 -10.671875 C 9.757812 -10.203125 9.90625 -9.671875 9.90625 -9.078125 C 9.90625 -8.535156 9.769531 -8.003906 9.5 -7.484375 C 9.238281 -6.972656 8.878906 -6.585938 8.421875 -6.328125 Z M 8.359375 -8.875 C 8.359375 -9.394531 8.171875 -9.828125 7.796875 -10.171875 C 7.429688 -10.523438 6.984375 -10.703125 6.453125 -10.703125 L 3.171875 -10.703125 L 3.171875 -7.03125 L 6.46875 -7.03125 C 7 -7.03125 7.445312 -7.210938 7.8125 -7.578125 C 8.175781 -7.941406 8.359375 -8.375 8.359375 -8.875 Z M 6.53125 -1.515625 C 7.132812 -1.515625 7.640625 -1.703125 8.046875 -2.078125 C 8.453125 -2.453125 8.65625 -2.9375 8.65625 -3.53125 C 8.65625 -4.101562 8.453125 -4.582031 8.046875 -4.96875 C 7.640625 -5.351562 7.132812 -5.546875 6.53125 -5.546875 L 3.171875 -5.546875 L 3.171875 -1.515625 Z M 6.53125 -1.515625 "/></g></g></g><g fill="#ed1f2f" fill-opacity="1"><g transform="translate(73.147418, 38.315702)"><g><path d="M 3.1875 -1.46875 L 8.765625 -1.46875 L 8.765625 0 L 1.671875 0 L 1.671875 -12.203125 L 8.578125 -12.203125 L 8.578125 -10.75 L 3.1875 -10.75 L 3.1875 -6.96875 L 8.125 -6.96875 L 8.125 -5.5625 L 3.1875 -5.5625 Z M 3.1875 -1.46875 "/></g></g></g><g fill="#ed1f2f" fill-opacity="1"><g transform="translate(83.737108, 38.315702)"><g><path d="M 10.1875 0 L 8.96875 -2.921875 L 3.125 -2.921875 L 1.921875 0 L 0.296875 0 L 5.28125 -12.203125 L 6.703125 -12.203125 L 11.84375 0 Z M 6.03125 -10.09375 L 3.6875 -4.328125 L 8.390625 -4.328125 Z M 6.03125 -10.09375 "/></g></g></g><g fill="#ed1f2f" fill-opacity="1"><g transform="translate(96.834827, 38.315702)"><g><path d="M 9.328125 -12.203125 L 9.328125 -10.765625 L 5.609375 -10.765625 L 5.609375 0 L 4.078125 0 L 4.078125 -10.765625 L 0.359375 -10.765625 L 0.359375 -12.203125 Z M 9.328125 -12.203125 "/></g></g></g><g fill="#ed1f2f" fill-opacity="1"><g transform="translate(107.476759, 38.315702)"><g/></g></g><g fill="#ed1f2f" fill-opacity="1"><g transform="translate(112.998118, 38.315702)"><g><path d="M 15.890625 0 L 14.34375 0 L 12.75 -9.53125 L 8.53125 -0.3125 L 8.140625 -0.3125 L 3.921875 -9.515625 L 2.328125 0 L 0.765625 0 L 2.828125 -12.203125 L 4.28125 -12.203125 L 8.328125 -3.234375 L 12.375 -12.203125 L 13.875 -12.203125 Z M 15.890625 0 "/></g></g></g><g fill="#ed1f2f" fill-opacity="1"><g transform="translate(130.624235, 38.315702)"><g><path d="M 10.1875 0 L 8.96875 -2.921875 L 3.125 -2.921875 L 1.921875 0 L 0.296875 0 L 5.28125 -12.203125 L 6.703125 -12.203125 L 11.84375 0 Z M 6.03125 -10.09375 L 3.6875 -4.328125 L 8.390625 -4.328125 Z M 6.03125 -10.09375 "/></g></g></g><g fill="#ed1f2f" fill-opacity="1"><g transform="translate(143.721955, 38.315702)"><g><path d="M 9.328125 -12.203125 L 9.328125 -10.765625 L 5.609375 -10.765625 L 5.609375 0 L 4.078125 0 L 4.078125 -10.765625 L 0.359375 -10.765625 L 0.359375 -12.203125 Z M 9.328125 -12.203125 "/></g></g></g><g fill="#ed1f2f" fill-opacity="1"><g transform="translate(154.363886, 38.315702)"><g><path d="M 9.328125 -12.203125 L 9.328125 -10.765625 L 5.609375 -10.765625 L 5.609375 0 L 4.078125 0 L 4.078125 -10.765625 L 0.359375 -10.765625 L 0.359375 -12.203125 Z M 9.328125 -12.203125 "/></g></g></g><g fill="#ed1f2f" fill-opacity="1"><g transform="translate(165.005818, 38.315702)"><g><path d="M 3.1875 -1.46875 L 8.765625 -1.46875 L 8.765625 0 L 1.671875 0 L 1.671875 -12.203125 L 8.578125 -12.203125 L 8.578125 -10.75 L 3.1875 -10.75 L 3.1875 -6.96875 L 8.125 -6.96875 L 8.125 -5.5625 L 3.1875 -5.5625 Z M 3.1875 -1.46875 "/></g></g></g><g fill="#ed1f2f" fill-opacity="1"><g transform="translate(175.595508, 38.315702)"><g><path d="M 8.765625 0 L 5.96875 -4.78125 L 3.1875 -4.78125 L 3.1875 0 L 1.671875 0 L 1.671875 -12.203125 L 6.296875 -12.203125 C 7.054688 -12.203125 7.734375 -12.039062 8.328125 -11.71875 C 8.929688 -11.394531 9.40625 -10.953125 9.75 -10.390625 C 10.09375 -9.828125 10.265625 -9.1875 10.265625 -8.46875 C 10.265625 -7.601562 10.015625 -6.859375 9.515625 -6.234375 C 9.023438 -5.609375 8.378906 -5.179688 7.578125 -4.953125 L 10.484375 0 Z M 3.1875 -10.75 L 3.1875 -6.21875 L 6.21875 -6.21875 C 6.957031 -6.21875 7.554688 -6.425781 8.015625 -6.84375 C 8.484375 -7.269531 8.71875 -7.816406 8.71875 -8.484375 C 8.71875 -9.128906 8.484375 -9.664062 8.015625 -10.09375 C 7.554688 -10.53125 6.957031 -10.75 6.21875 -10.75 Z M 3.1875 -10.75 "/></g></g></g><g fill="#ed1f2f" fill-opacity="1"><g transform="translate(187.770132, 38.315702)"><g><path d="M 5.296875 0.15625 C 4.398438 0.15625 3.613281 0 2.9375 -0.3125 C 2.269531 -0.632812 1.742188 -1.085938 1.359375 -1.671875 C 0.984375 -2.265625 0.796875 -2.960938 0.796875 -3.765625 L 2.359375 -3.765625 C 2.359375 -2.992188 2.632812 -2.394531 3.1875 -1.96875 C 3.75 -1.550781 4.445312 -1.34375 5.28125 -1.34375 C 5.789062 -1.34375 6.253906 -1.425781 6.671875 -1.59375 C 7.085938 -1.757812 7.414062 -2.003906 7.65625 -2.328125 C 7.90625 -2.648438 8.03125 -3.023438 8.03125 -3.453125 C 8.03125 -3.921875 7.882812 -4.285156 7.59375 -4.546875 C 7.3125 -4.816406 6.9375 -5.023438 6.46875 -5.171875 C 6.007812 -5.328125 5.519531 -5.460938 5 -5.578125 C 4.519531 -5.691406 4.046875 -5.816406 3.578125 -5.953125 C 3.117188 -6.097656 2.691406 -6.285156 2.296875 -6.515625 C 1.910156 -6.753906 1.601562 -7.066406 1.375 -7.453125 C 1.144531 -7.847656 1.03125 -8.347656 1.03125 -8.953125 C 1.03125 -10.015625 1.40625 -10.847656 2.15625 -11.453125 C 2.914062 -12.054688 3.921875 -12.359375 5.171875 -12.359375 C 6.441406 -12.359375 7.4375 -12.03125 8.15625 -11.375 C 8.882812 -10.726562 9.25 -9.851562 9.25 -8.75 L 7.734375 -8.75 C 7.734375 -9.414062 7.488281 -9.9375 7 -10.3125 C 6.507812 -10.695312 5.894531 -10.890625 5.15625 -10.890625 C 4.414062 -10.890625 3.796875 -10.722656 3.296875 -10.390625 C 2.804688 -10.054688 2.5625 -9.601562 2.5625 -9.03125 C 2.5625 -8.570312 2.695312 -8.21875 2.96875 -7.96875 C 3.25 -7.71875 3.613281 -7.519531 4.0625 -7.375 C 4.507812 -7.226562 4.992188 -7.097656 5.515625 -6.984375 C 5.992188 -6.867188 6.472656 -6.734375 6.953125 -6.578125 C 7.441406 -6.429688 7.882812 -6.234375 8.28125 -5.984375 C 8.6875 -5.742188 9.003906 -5.421875 9.234375 -5.015625 C 9.472656 -4.609375 9.59375 -4.09375 9.59375 -3.46875 C 9.59375 -2.695312 9.40625 -2.039062 9.03125 -1.5 C 8.65625 -0.96875 8.140625 -0.554688 7.484375 -0.265625 C 6.835938 0.015625 6.109375 0.15625 5.296875 0.15625 Z M 5.296875 0.15625 "/></g></g></g></g></g><path fill="#ed1f2f" d="M 187.636719 86.933594 L 195.027344 146.476562 C 191.941406 143.8125 188.535156 140.894531 184.75 137.644531 C 176.046875 130.167969 169.984375 122.847656 165.792969 116.0625 L 178.464844 116.0625 C 179.886719 116.0625 181.121094 115.082031 181.4375 113.699219 L 187.636719 86.933594 " fill-opacity="1" fill-rule="nonzero"/><g clip-path="url(#f8d521198b)"><path fill="#ed1f2f" d="M 292.085938 137.644531 C 257.117188 167.65625 254.273438 170.097656 238.417969 192.40625 C 226.550781 175.71875 221.976562 170.144531 205.773438 155.828125 L 218.464844 99.773438 L 232.386719 140.519531 C 232.804688 141.722656 233.917969 142.546875 235.1875 142.582031 C 236.457031 142.625 237.617188 141.875 238.105469 140.703125 L 248.320312 116.0625 L 284.765625 116.0625 C 286.453125 116.0625 287.820312 114.699219 287.820312 113.015625 C 287.820312 111.335938 286.453125 109.96875 284.765625 109.96875 L 246.28125 109.96875 C 245.042969 109.96875 243.929688 110.710938 243.457031 111.851562 L 235.558594 130.894531 L 220.761719 87.59375 C 220.320312 86.300781 219.074219 85.464844 217.707031 85.53125 C 216.34375 85.605469 215.191406 86.574219 214.890625 87.902344 L 201.339844 147.742188 L 191.578125 69.078125 C 191.390625 67.617188 190.183594 66.488281 188.703125 66.410156 C 187.238281 66.328125 185.898438 67.328125 185.570312 68.769531 L 176.03125 109.96875 L 162.4375 109.96875 C 154 92.589844 157.515625 80.046875 157.515625 80.046875 C 157.515625 80.046875 158.730469 51.242188 191.660156 44.347656 C 224.59375 37.453125 238.417969 68.28125 238.417969 68.28125 C 238.417969 68.28125 252.238281 37.453125 285.167969 44.347656 C 318.105469 51.242188 319.320312 80.046875 319.320312 80.046875 C 319.320312 80.046875 327.050781 107.628906 292.085938 137.644531 " fill-opacity="1" fill-rule="nonzero"/></g><g clip-path="url(#eade2eb33f)"><path fill="#ec1d27" d="M 162.4375 109.96875 C 163.390625 111.945312 164.503906 113.980469 165.792969 116.0625 L 153.078125 116.0625 L 143.75 140.617188 C 143.253906 141.914062 141.941406 142.722656 140.558594 142.5625 C 139.171875 142.410156 138.066406 141.34375 137.863281 139.972656 L 133.0625 106.5625 L 123.726562 153.023438 C 123.441406 154.449219 122.183594 155.472656 120.734375 155.472656 L 120.679688 155.472656 C 119.207031 155.449219 117.960938 154.375 117.71875 152.925781 C 113.464844 127.523438 106.765625 89.390625 103.121094 72.308594 C 99.945312 83.027344 94.957031 101.246094 91.609375 113.796875 C 91.253906 115.132812 90.039062 116.0625 88.660156 116.0625 L 51.085938 116.0625 C 49.398438 116.0625 48.03125 114.699219 48.03125 113.015625 C 48.03125 111.335938 49.398438 109.96875 51.085938 109.96875 L 86.3125 109.96875 C 90.484375 94.351562 98.964844 63.167969 100.78125 60.449219 C 101.507812 59.363281 102.796875 58.832031 104.066406 59.101562 C 106.332031 59.589844 106.878906 61.765625 107.78125 65.367188 C 108.386719 67.78125 109.15625 71.292969 110.078125 75.796875 C 111.613281 83.332031 113.578125 93.796875 115.933594 106.898438 C 117.777344 117.179688 119.574219 127.511719 120.980469 135.679688 L 130.566406 87.976562 C 130.855469 86.523438 132.160156 85.484375 133.644531 85.53125 C 135.132812 85.574219 136.375 86.675781 136.582031 88.148438 L 142.234375 127.40625 L 148.117188 111.929688 C 148.5625 110.75 149.707031 109.96875 150.972656 109.96875 L 162.4375 109.96875 " fill-opacity="1" fill-rule="nonzero"/></g><path fill="#ec1d27" d="M 205.773438 155.828125 L 203.441406 166.128906 C 203.121094 167.523438 201.882812 168.507812 200.460938 168.507812 C 200.410156 168.507812 200.363281 168.507812 200.308594 168.5 C 198.820312 168.425781 197.613281 167.304688 197.429688 165.828125 L 195.027344 146.476562 C 199.128906 150.011719 202.664062 153.085938 205.773438 155.828125 " fill-opacity="1" fill-rule="nonzero"/></svg>