<svg xmlns="http://www.w3.org/2000/svg" xmlns:xlink="http://www.w3.org/1999/xlink" width="500" zoomAndPan="magnify" viewBox="0 0 375 374.999991" height="500" preserveAspectRatio="xMidYMid meet" version="1.0"><defs><clipPath id="ffaa28c7df"><path d="M 146 91 L 366 91 L 366 291.683594 L 146 291.683594 Z M 146 91 " clip-rule="nonzero"/></clipPath></defs><path fill="#ed1f2f" d="M 187.640625 149.808594 L 197.578125 230.0625 C 193.429688 226.472656 188.847656 222.539062 183.765625 218.160156 C 172.0625 208.085938 163.917969 198.21875 158.285156 189.074219 L 175.316406 189.074219 C 177.226562 189.074219 178.886719 187.75 179.3125 185.886719 L 187.640625 149.808594 " fill-opacity="1" fill-rule="nonzero"/><g clip-path="url(#ffaa28c7df)"><path fill="#ed1f2f" d="M 328.03125 218.160156 C 281.035156 258.613281 277.207031 261.898438 255.898438 291.972656 C 239.949219 269.476562 233.800781 261.96875 212.023438 242.667969 L 229.078125 167.113281 L 247.792969 222.035156 C 248.351562 223.65625 249.847656 224.765625 251.554688 224.8125 C 253.261719 224.871094 254.820312 223.859375 255.480469 222.285156 L 269.207031 189.074219 L 318.191406 189.074219 C 320.457031 189.074219 322.300781 187.234375 322.300781 184.964844 C 322.300781 182.699219 320.457031 180.855469 318.191406 180.855469 L 266.464844 180.855469 C 264.800781 180.855469 263.304688 181.859375 262.671875 183.394531 L 252.054688 209.0625 L 232.167969 150.699219 C 231.574219 148.953125 229.898438 147.832031 228.058594 147.921875 C 226.230469 148.019531 224.675781 149.324219 224.273438 151.117188 L 206.0625 231.773438 L 192.9375 125.746094 C 192.691406 123.773438 191.066406 122.253906 189.078125 122.144531 C 187.105469 122.039062 185.308594 123.386719 184.863281 125.324219 L 172.046875 180.855469 L 153.773438 180.855469 C 142.433594 157.433594 147.15625 140.527344 147.15625 140.527344 C 147.15625 140.527344 148.789062 101.707031 193.054688 92.414062 C 237.316406 83.121094 255.898438 124.667969 255.898438 124.667969 C 255.898438 124.667969 274.472656 83.121094 318.734375 92.414062 C 363.003906 101.707031 364.640625 140.527344 364.640625 140.527344 C 364.640625 140.527344 375.027344 177.703125 328.03125 218.160156 " fill-opacity="1" fill-rule="nonzero"/></g><path fill="#ec1d27" d="M 153.773438 180.855469 C 155.054688 183.519531 156.550781 186.261719 158.285156 189.074219 L 141.195312 189.074219 L 128.65625 222.167969 C 127.988281 223.917969 126.226562 225.003906 124.367188 224.789062 C 122.503906 224.585938 121.015625 223.144531 120.746094 221.296875 L 114.292969 176.265625 L 101.742188 238.886719 C 101.359375 240.808594 99.667969 242.191406 97.722656 242.191406 L 97.648438 242.191406 C 95.667969 242.15625 93.992188 240.710938 93.664062 238.757812 C 87.949219 204.519531 78.949219 153.121094 74.046875 130.101562 C 69.777344 144.542969 63.074219 169.101562 58.574219 186.019531 C 58.097656 187.816406 56.464844 189.074219 54.609375 189.074219 L 4.105469 189.074219 C 1.839844 189.074219 0 187.234375 0 184.964844 C 0 182.699219 1.839844 180.855469 4.105469 180.855469 L 51.457031 180.855469 C 57.0625 159.808594 68.460938 117.777344 70.902344 114.109375 C 71.878906 112.648438 73.609375 111.933594 75.320312 112.296875 C 78.363281 112.953125 79.097656 115.886719 80.3125 120.742188 C 81.125 123.996094 82.160156 128.726562 83.398438 134.800781 C 85.460938 144.953125 88.105469 159.0625 91.265625 176.71875 C 93.746094 190.578125 96.160156 204.503906 98.050781 215.511719 L 110.933594 151.214844 C 111.328125 149.257812 113.078125 147.855469 115.074219 147.921875 C 117.074219 147.976562 118.746094 149.464844 119.023438 151.445312 L 126.617188 204.363281 L 134.527344 183.503906 C 135.125 181.910156 136.660156 180.855469 138.363281 180.855469 L 153.773438 180.855469 " fill-opacity="1" fill-rule="nonzero"/><path fill="#ec1d27" d="M 212.023438 242.667969 L 208.882812 256.550781 C 208.457031 258.433594 206.792969 259.757812 204.878906 259.757812 C 204.8125 259.757812 204.746094 259.757812 204.671875 259.746094 C 202.675781 259.648438 201.050781 258.136719 200.804688 256.148438 L 197.578125 230.0625 C 203.089844 234.828125 207.839844 238.972656 212.023438 242.667969 " fill-opacity="1" fill-rule="nonzero"/></svg>